<?xml version="1.0" encoding="utf-8"?>
<!-- Generator: Adobe Illustrator 23.0.3, SVG Export Plug-In . SVG Version: 6.00 Build 0)  -->
<svg version="1.1" id="Layer_1" xmlns="http://www.w3.org/2000/svg" xmlns:xlink="http://www.w3.org/1999/xlink" x="0px" y="0px"
	 viewBox="0 0 92 92" style="enable-background:new 0 0 92 92;" xml:space="preserve">
<style type="text/css">
	.st0{fill:none;}
	.st1{fill-rule:evenodd;clip-rule:evenodd;fill:#FFFFFF;}
	.st2{fill-rule:evenodd;clip-rule:evenodd;fill:#F17D39;}
</style>
<title>EP logo, fill BG</title>
<desc>Created with Sketch.</desc>
<g id="Master">
	<g transform="translate(-6.000000, -6.000000)">
		<polygon id="Bounding-Box" class="st0" points="0,0 104,0 104,104 0,104 		"/>
		<rect id="Rectangle-Copy-4" x="23" y="36" class="st1" width="59" height="41"/>
		<path id="Mask" class="st2" d="M84.5,10.7c3.8,2.9,6.2,7.2,6.9,12l0,0.3l5.9,47.7c1.2,10-5.8,19.1-15.7,20.5l-0.3,0L33,97.1
			c-4.8,0.6-9.7-0.8-13.6-3.8c-3.8-2.9-6.2-7.2-6.9-12l0-0.3L6.7,33.3c-0.6-4.8,0.8-9.7,3.8-13.6c2.9-3.8,7.2-6.2,12-6.9l0.3,0
			L71,6.9C75.8,6.3,80.7,7.7,84.5,10.7z M68.7,36.9l-0.3,0c-1,0-2,0.1-3,0.3c-0.8,0.2-1.6,0.5-2.3,0.8c-0.6,0.3-1.2,0.7-1.7,1.1
			c-0.3,0.3-0.6,0.5-0.9,0.8l-0.2,0.2v-1.2c0-0.8-0.6-1.4-1.3-1.4l-0.1,0h-4.1c-0.8,0-1.4,0.6-1.4,1.4l0,0.1v35.2
			c0,0.8,0.6,1.4,1.4,1.4l0.1,0h4.1c0.8,0,1.4-0.6,1.4-1.4l0-0.1V62.7c0.4,0.4,0.7,0.7,1.1,1c0.5,0.4,1.1,0.8,1.7,1
			c0.7,0.4,1.5,0.6,2.3,0.8c1,0.2,2,0.3,3,0.3c1.7,0,3.3-0.3,4.9-1c1.4-0.7,2.7-1.6,3.7-2.8c1-1.2,1.9-2.6,2.4-4
			c0.6-1.5,0.9-3.1,1-4.8c0-0.5,0.1-1.2,0.1-1.9c0-0.7,0-1.3-0.1-1.9c-0.1-1.6-0.4-3.2-1-4.8c-0.6-1.5-1.4-2.8-2.4-4
			c-1-1.2-2.3-2.1-3.7-2.8c-1.3-0.6-2.8-1-4.2-1L68.7,36.9z M32,38c-1.6,0.7-3,1.8-4.2,3.1c-1.2,1.4-2.1,2.9-2.6,4.6
			c-0.6,1.8-0.9,3.7-0.9,5.7c0,2,0.3,4,0.9,5.9c0.6,1.7,1.5,3.3,2.6,4.6c1.2,1.3,2.6,2.3,4.2,3c1.7,0.7,3.6,1.1,5.5,1
			c1.8,0,3.6-0.2,5.3-0.8c1.4-0.5,2.7-1.1,3.8-1.9c0.9-0.6,1.7-1.4,2.3-2.3c0.4-0.6,0.7-1.2,0.8-1.9c0-0.4-0.1-0.8-0.4-1
			c-0.3-0.2-0.6-0.4-0.9-0.4l-0.1,0H44c-0.4,0-0.7,0-1,0.2c-0.3,0.2-0.7,0.4-1,0.6c-0.5,0.4-1.1,0.7-1.8,0.9
			c-0.9,0.3-1.8,0.4-2.8,0.3c-0.8,0-1.6-0.1-2.3-0.3c-0.7-0.2-1.4-0.5-2-1c-0.6-0.4-1-1-1.4-1.6c-0.3-0.6-0.5-1.3-0.5-2l0-0.2h17.9
			c0.4,0,0.8-0.1,1-0.4c0.2-0.2,0.4-0.6,0.4-0.9l0-0.1v-2.4c0-1.8-0.3-3.6-0.9-5.2c-0.6-1.6-1.5-3.1-2.7-4.4c-1.2-1.3-2.6-2.3-4.2-3
			c-1.7-0.8-3.6-1.1-5.5-1.1C35.6,36.9,33.7,37.2,32,38z M66.6,43.3l0.2,0c1.6,0,3.2,0.5,4.5,1.5c1.2,1,1.9,2.7,2.1,5
			c0.1,1,0.1,2,0,3c-0.2,2.3-0.9,4-2.1,5c-1.3,1-2.8,1.6-4.5,1.5c-1.6,0-3.2-0.5-4.4-1.6c-1.2-1.1-2-2.7-2.1-4.4
			c-0.1-0.7-0.1-1.4-0.1-2c0-0.7,0-1.4,0.1-2c0.1-1.7,0.8-3.3,2.1-4.5c1.1-1,2.5-1.5,4-1.5L66.6,43.3z M40.3,43.8
			c0.7,0.3,1.3,0.7,1.8,1.2c0.4,0.5,0.8,1,1,1.6c0.1,0.4,0.3,0.9,0.3,1.3l0.1,0.3H31.3c0.1-0.6,0.3-1.2,0.5-1.7
			c0.3-0.6,0.7-1.2,1.1-1.6c0.5-0.5,1.2-0.9,1.9-1.2c0.8-0.3,1.8-0.5,2.7-0.5C38.4,43.3,39.4,43.5,40.3,43.8z"/>
	</g>
</g>
</svg>
