<?xml version="1.0" encoding="UTF-8"?>
<svg width="160px" height="160px" viewBox="0 0 160 160" version="1.1" xmlns="http://www.w3.org/2000/svg" xmlns:xlink="http://www.w3.org/1999/xlink">
    <!-- Generator: Sketch 60.1 (88133) - https://sketch.com -->
    <title>Logo – fill</title>
    <desc>Created with Sketch.</desc>
    <defs>
        <path d="M112.643697,0.839928738 L113.216527,0.845020132 C131.89858,1.14973526 147.580074,15.0441494 150.131534,33.5541523 L150.204735,34.1165112 L159.225148,107.528648 C161.71532,128.077985 147.279777,146.786504 126.857524,149.657061 L126.236758,149.739186 L52.0561566,158.86527 C42.0724998,160.118678 32.0008387,157.343099 24.0686487,151.152389 C16.2756266,145.070292 11.1785648,136.184214 9.85525485,126.401783 L9.78798025,125.876879 L0.777173181,52.4647423 C-1.7242965,31.9084793 12.7141196,13.1877119 33.1446348,10.3171263 L33.7655639,10.2349916 L107.994197,1.12812085 C109.536602,0.936184903 111.089477,0.839928738 112.643697,0.839928738 Z M109.631993,10.6033972 L109.156572,10.6576733 L34.9375452,19.7741505 C27.4912278,20.6865667 20.712517,24.5200981 16.0931433,30.4312065 C11.5720527,36.2166632 9.48200476,43.528097 10.252421,50.8174362 L10.306726,51.292761 L19.3271391,124.676079 L19.3879573,125.140587 C20.4001648,132.403902 24.1962505,138.997344 29.9842432,143.520481 C35.7696038,148.041562 43.0810761,150.131617 50.3704056,149.361203 L50.8457497,149.306898 L125.064777,140.190421 L125.064777,140.21924 C140.412256,138.333484 151.369608,124.484172 149.739305,109.165282 L149.685989,108.70063 L140.675183,35.2884924 C139.762863,27.8421847 135.929235,21.0634259 130.018127,16.4440906 C124.232766,11.9230288 116.921332,9.83296357 109.631993,10.6033972 Z M105.198734,56.7491983 C107.782184,56.7136546 110.340273,57.2620842 112.682122,58.3534678 C114.854803,59.3842349 116.793471,60.8488272 118.37872,62.6571366 C119.971462,64.4887128 121.2299,66.586002 122.096398,68.853267 C123.008814,71.1881323 123.525062,73.6589089 123.623816,76.1637402 C123.681455,76.989891 123.710274,77.9505313 123.710274,79.0456614 C123.710274,80.1407914 123.710274,81.1110382 123.623816,81.9275825 C123.524102,84.4323081 123.00795,86.9029311 122.096398,89.2380557 C121.2299,91.5053207 119.971462,93.6026099 118.37872,95.4341861 C116.790589,97.2368373 114.852401,98.6977792 112.682122,99.7282485 C110.344788,100.837029 107.785642,101.398802 105.198734,101.370944 C103.656714,101.39081 102.118056,101.223063 100.616479,100.871411 C99.3905101,100.587743 98.1987396,100.172247 97.0621099,99.6321845 C96.1343523,99.1976965 95.260621,98.656049 94.4588226,98.0183087 C93.8357128,97.5292275 93.2511919,96.9928827 92.7104571,96.4140393 L92.7104571,114.012971 C92.689909,115.235232 91.7040326,116.221108 90.4817714,116.241657 L84.2183962,116.241657 C82.996135,116.221108 82.0102586,115.235232 81.9897105,114.012971 L81.9897105,59.8136411 C82.0102586,58.5914184 82.996135,57.6055132 84.2183962,57.5849555 L90.5009842,57.5849555 C91.7157332,57.615696 92.6902452,58.5987192 92.7104571,59.8136411 L92.7104571,61.7349219 C93.2421619,61.1510446 93.8204482,60.6112608 94.4396098,60.121046 C95.2507457,59.4787619 96.1302503,58.9278346 97.0621099,58.478351 C98.2021979,57.9467326 99.3931038,57.5315439 100.616479,57.2391249 C102.119305,56.8955999 103.657386,56.7311383 105.198734,56.7491983 Z M57.6182643,56.7491983 C60.5049406,56.7221083 63.364133,57.3116533 66.0046548,58.478351 C68.4224713,59.54495 70.5989366,61.0907164 72.4025196,63.02218 C74.1978028,64.9710599 75.5887428,67.2566539 76.4948476,69.7466626 C77.4583603,72.3207465 77.9465962,75.0483503 77.9361505,77.7968289 L77.9361505,81.5145071 C77.9398621,82.106348 77.7042362,82.6746341 77.2825727,83.0899573 C76.8698144,83.5154057 76.299828,83.7517425 75.7071225,83.7431928 L48.1175311,83.7431928 C48.0935631,84.9081133 48.3610438,86.0605551 48.8956498,87.0958277 C49.4143379,88.0504736 50.1356924,88.8800154 51.0090586,89.5262478 C51.9253654,90.2090806 52.9615313,90.7141277 54.063895,91.0152404 C55.2189497,91.3496969 56.4157635,91.5178955 57.6182643,91.5147734 C59.0686103,91.5541212 60.5165067,91.3727331 61.9123268,90.9768148 C62.8923721,90.6797559 63.814875,90.2185045 64.6405454,89.6127054 C65.1038815,89.2576816 65.6028958,88.9518329 66.129538,88.7000971 C66.6388791,88.4941454 67.1844845,88.3928651 67.7338074,88.4022986 L74.3430132,88.4022986 C74.9452771,88.4027693 75.5238515,88.6369542 75.956889,89.055534 C76.4033466,89.451193 76.6321519,90.0375102 76.5716988,90.6309842 C76.3897632,91.7085057 75.9515767,92.7265443 75.2940472,93.599363 C74.3215525,94.9919265 73.1041906,96.1962717 71.7012522,97.1537323 C69.8853537,98.4252648 67.8955505,99.4282502 65.7933139,100.131717 C63.170708,101.002 60.4194628,101.421012 57.6566899,101.370944 C54.7694373,101.425863 51.9017529,100.886339 49.2318739,99.785887 C46.7834898,98.7510563 44.5951222,97.1860579 42.8244026,95.2036324 C41.0188598,93.1397446 39.6438568,90.7359246 38.7801066,88.1333193 C37.8080635,85.2103788 37.333949,82.1448985 37.3775717,79.0648742 C37.3541417,76.102509 37.8282369,73.1572337 38.7801066,70.351866 C39.6526947,67.7532185 41.0267563,65.3510604 42.8244026,63.2815529 C44.5991569,61.2481654 46.7823946,59.6116185 49.2318739,58.478351 C51.8681208,57.2983004 54.7302528,56.708179 57.6182643,56.7491983 Z M95.9093895,69.0453951 C93.9663983,70.8182473 92.8143215,73.2953834 92.7104571,75.9235801 C92.4926799,78.012118 92.4926799,80.1176303 92.7104571,82.2061682 C92.8623728,84.7741328 94.0017883,87.1837839 95.8901767,88.9306508 C97.7617443,90.594403 100.197928,91.4809108 102.701069,91.4091029 C105.19662,91.4786149 107.632997,90.642608 109.560041,89.055534 C111.449333,87.512102 112.557239,84.9535996 112.883857,81.3800175 C113.048607,79.8345584 113.048607,78.2759771 112.883857,76.7305181 C112.557239,73.1505284 111.455769,70.5888272 109.579254,69.0453951 C107.654419,67.4544401 105.216506,66.6179241 102.720282,66.6918262 C100.23693,66.6063772 97.8101606,67.4449682 95.9093895,69.0453951 Z M57.6182643,66.6726134 C56.2213107,66.6349659 54.8306493,66.8732719 53.5259363,67.3738808 C52.4618062,67.7966779 51.4848061,68.412189 50.6440152,69.1894911 C49.9017476,69.8971469 49.2989074,70.7378609 48.8668305,71.6679433 C48.4836887,72.4938154 48.221626,73.3706111 48.0887118,74.2712787 L66.7731671,74.2712787 C66.650109,73.3861831 66.4442726,72.5145845 66.1583572,71.6679433 C65.8476093,70.7435959 65.3395362,69.8979058 64.6693647,69.1894911 C63.9094309,68.3985959 62.9890125,67.7795208 61.9699652,67.3738808 C60.5791309,66.858113 59.1007149,66.6198742 57.6182643,66.6726134 Z" id="path-1"></path>
    </defs>
    <g id="Page-1" stroke="none" stroke-width="1" fill="none" fill-rule="evenodd">
        <g id="White-splash---outline" transform="translate(-293.000000, -186.000000)">
            <g id="Logo-–-stroke" transform="translate(293.000000, 186.000000)">
                <polygon id="Bounding-Box" points="0 0 160 0 160 160 0 160"></polygon>
                <mask id="mask-2" fill="white">
                    <use xlink:href="#path-1"></use>
                </mask>
                <g id="Mask"></g>
                <g id="Mixin/Fill/White" mask="url(#mask-2)" fill="#FFFFFF" fill-rule="evenodd">
                    <rect id="Box" x="0" y="0" width="160" height="160"></rect>
                </g>
            </g>
        </g>
    </g>
</svg>