<?xml version="1.0" encoding="UTF-8"?>
<svg width="92px" height="92px" viewBox="0 0 92 92" version="1.1" xmlns="http://www.w3.org/2000/svg" xmlns:xlink="http://www.w3.org/1999/xlink">
    <!-- Generator: Sketch 60.1 (88133) - https://sketch.com -->
    <title>EP logo, fill BG</title>
    <desc>Created with Sketch.</desc>
    <g id="Master" stroke="none" stroke-width="1" fill="none" fill-rule="evenodd">
        <g id="EP-logo,-fill-BG" transform="translate(-6.000000, -6.000000)">
            <polygon id="Bounding-Box" points="0 0 104 0 104 104 0 104"></polygon>
            <rect id="Rectangle-Copy-4" fill="#FFFFFF" x="23" y="36" width="59" height="41"></rect>
            <path d="M84.5186279,10.6678922 C88.2826775,13.6094334 90.7513982,17.8972757 91.4096173,22.6207765 L91.4491675,22.9228594 L97.3091115,70.6645608 C98.5353105,80.6454155 91.5215436,89.739495 81.598916,91.1223336 L81.2973454,91.1618705 L33.0309229,97.0905332 C28.1885662,97.6852184 23.3083323,96.3315743 19.4641778,93.3274871 C15.7001098,90.3859839 13.2314247,86.0981124 12.5731649,81.3746045 L12.533612,81.0725212 L6.66742057,33.3308197 C6.07273545,28.4884943 7.4263796,23.608248 10.4304668,19.7641122 C13.3719664,16.0000625 17.6598438,13.5313418 22.3833519,12.8730641 L22.6854353,12.8335101 L70.9518578,6.90484601 C75.7942457,6.31016789 80.6744921,7.66382746 84.5186279,10.6678922 Z M68.6929494,36.8854131 L68.3780055,36.8855443 C67.3758426,36.8717815 66.3755789,36.9766295 65.3980552,37.197908 C64.6024023,37.3880876 63.8279838,37.6580886 63.0865634,38.0038065 C62.4805215,38.2961228 61.9085585,38.6543853 61.3810573,39.0720906 C61.0589328,39.3271293 60.7538209,39.6027791 60.4676216,39.8972646 L60.2565478,40.1216328 L60.2565478,38.8721778 C60.243975,38.1164069 59.6635904,37.4986622 58.9217913,37.4288894 L58.8196745,37.4228099 L54.7339566,37.4228099 C53.9722102,37.4356161 53.3516469,38.0249736 53.2894945,38.7736545 L53.2845888,38.8721778 L53.2845888,74.119304 C53.2973949,74.8810444 53.8867524,75.5016132 54.6354333,75.563766 L54.7339566,75.5686718 L58.80718,75.5686718 C59.5689204,75.5558657 60.1894893,74.9665024 60.251642,74.2178265 L60.2565478,74.119304 L60.2565478,62.6742959 C60.6095251,63.0513252 60.9895344,63.4021035 61.3935519,63.7238382 C61.9167862,64.1342592 62.484726,64.4842502 63.0865634,64.7671331 C63.8257348,65.1183487 64.6007468,65.3885558 65.3980552,65.5730316 C66.3745293,65.8017194 67.3751929,65.9108093 68.3780055,65.8978899 C70.0574355,65.9283829 71.721772,65.5758616 73.2446078,64.8670895 C74.657679,64.1914405 75.9182541,63.2348827 76.9492419,62.0558157 C77.9850402,60.8646977 78.8034332,59.5007801 79.3669374,58.0263233 C79.9597413,56.5077356 80.2954074,54.9010302 80.3602542,53.2721469 C80.3977378,52.7348812 80.4164796,52.0976592 80.4164796,51.3854698 C80.4164796,50.6732805 80.3977378,50.0485529 80.3602542,49.5112873 C80.2954074,47.882404 79.9597413,46.2756986 79.3669374,44.7571109 C78.8034332,43.282654 77.9850402,41.9187364 76.9492419,40.7276185 C75.9180667,39.5534993 74.6573041,38.6031139 73.2446078,37.9350865 C71.9134384,37.3092587 70.4727367,36.9562141 69.0073114,36.8942337 L68.6929494,36.8854131 Z M31.9813806,38.0038065 C30.3884192,38.7407851 28.9686072,39.8051146 27.8144481,41.1274441 C26.6432777,42.4788484 25.7495863,44.0475829 25.1843453,45.7441804 C24.5653216,47.5685784 24.2570061,49.4839617 24.2722432,51.4104589 C24.2459734,53.4071942 24.5542701,55.3942401 25.1843453,57.2891448 C25.7460628,58.9816816 26.6402603,60.5449372 27.8144481,61.8871393 C28.9659834,63.1763582 30.3891376,64.1941143 31.9813806,64.8670895 C33.7176671,65.5827336 35.5825912,65.9336056 37.4602409,65.8978899 C39.2569385,65.9304507 41.0461394,65.6579508 42.7516829,65.0919914 C44.1192614,64.6355593 45.4134157,63.9832188 46.5937571,63.1553361 C47.5061217,62.5326702 48.2978014,61.7494618 48.930238,60.8438443 C49.3578453,60.2762294 49.6428022,59.6141744 49.7611256,58.9134363 C49.8004397,58.5274797 49.6516421,58.1461897 49.3613,57.8888832 C49.1078468,57.6438919 48.7777302,57.496033 48.4287164,57.468688 L48.3117578,57.4640685 L44.0136325,57.4640685 C43.658931,57.4459889 43.3041982,57.499097 42.9703376,57.6202504 C42.6278495,57.7839602 42.3033285,57.982861 42.0020099,58.2137415 C41.4650566,58.6077072 40.8651246,58.9076701 40.2277838,59.1008546 C39.3200485,59.3583235 38.3784467,59.4762908 37.4352518,59.450702 C36.6532367,59.4527324 35.8749199,59.3433488 35.12376,59.1258437 C34.4068665,58.9300228 33.7330229,58.6015786 33.1371265,58.157516 C32.5694554,57.7386925 32.1021092,57.1987905 31.7689733,56.5769554 C31.4484029,55.9663524 31.2735799,55.2908294 31.2569331,54.6032418 L31.2566967,54.3966564 L49.1988709,54.3966564 C49.5843215,54.4022102 49.9549973,54.248521 50.223424,53.9718417 C50.4702201,53.7287565 50.6190186,53.4050962 50.6444704,53.0622114 L50.6484613,52.9472886 L50.6484613,50.5670768 C50.6552544,48.7796751 50.3377429,47.0058426 49.7111474,45.3318602 C49.1218857,43.7125415 48.217324,42.2261711 47.0498082,40.9587676 C45.8768948,39.7026843 44.4614872,38.6974477 42.889123,38.0038065 C41.1719282,37.24505 39.3125268,36.8616734 37.4352518,36.879297 C35.5571085,36.8526211 33.6957954,37.2363975 31.9813806,38.0038065 Z M66.5557878,43.3413784 L66.7662085,43.3452267 C68.3895379,43.2971602 69.9749714,43.8411729 71.2267379,44.8758091 C72.4470807,45.8878677 73.1633932,47.5538036 73.3758006,49.8736292 C73.4783184,50.8770541 73.4741327,51.8885191 73.363306,52.8910631 C73.1508987,55.198388 72.4345861,56.8643301 71.2142434,57.8888832 C69.96104,58.9209955 68.3766123,59.4646709 66.7537139,59.4194656 C65.1258427,59.4661577 63.5415462,58.8896467 62.3243959,57.8076686 C61.0963315,56.6716391 60.3553422,55.1045851 60.2565478,53.4345761 C60.1758705,52.7567342 60.1403922,52.0742694 60.1503441,51.3917171 C60.1403922,50.7091586 60.1758705,50.0267 60.2565478,49.3488581 C60.3240934,47.6396786 61.0733166,46.0287375 62.3368904,44.8758091 C63.4655294,43.9255174 64.8793377,43.3882455 66.3459418,43.3442897 L66.5557878,43.3413784 Z M40.2652675,43.7887833 C40.9302149,44.0517936 41.5309841,44.4544367 42.026999,44.9695183 C42.4577799,45.4329162 42.7856494,45.9822078 42.9890794,46.5813153 C43.137827,47.0217856 43.2532517,47.4726452 43.3344413,47.930077 L43.388905,48.2743268 L31.2504495,48.2743268 C31.3363183,47.6877077 31.508968,47.1171315 31.762726,46.5813153 C32.0422354,45.9771913 32.4320841,45.4305609 32.9122246,44.9695183 C33.4590111,44.46402 34.0943778,44.0637383 34.7864072,43.7887833 C35.6348933,43.463219 36.5392739,43.3082491 37.4477464,43.3327322 C38.4076402,43.3000652 39.3646853,43.4549789 40.2652675,43.7887833 Z" id="Mask" fill="#182552"></path>
        </g>
    </g>
</svg>