<?xml version="1.0" encoding="utf-8"?>
<!-- Generator: Adobe Illustrator 23.0.3, SVG Export Plug-In . SVG Version: 6.00 Build 0)  -->
<svg version="1.1" id="Layer_1" xmlns="http://www.w3.org/2000/svg" xmlns:xlink="http://www.w3.org/1999/xlink" x="0px" y="0px"
	 viewBox="0 0 202.5 202.1" style="enable-background:new 0 0 202.5 202.1;" xml:space="preserve">
<style type="text/css">
	.st0{clip-path:url(#SVGID_2_);fill:#112F41;}
	.st1{clip-path:url(#SVGID_4_);}
	.st2{clip-path:url(#SVGID_6_);}
	.st3{clip-path:url(#SVGID_8_);}
	.st4{clip-path:url(#SVGID_10_);}
	.st5{clip-path:url(#SVGID_12_);fill:url(#SVGID_13_);}
	.st6{clip-path:url(#SVGID_15_);}
	.st7{clip-path:url(#SVGID_19_);fill:none;}
	.st8{fill:#FFFFFF;}
</style>
<g>
	<g>
		<g>
			<defs>
				<path id="SVGID_1_" d="M101.2,201.2c55.8,0,96.2-44.3,96.2-100.2c0-55.8-40.3-96.8-96.1-96.8C45.4,4.2,3,45.2,3,101
					C3,156.9,45.3,201.2,101.2,201.2"/>
			</defs>
			<use xlink:href="#SVGID_1_"  style="overflow:visible;fill:#112F41;"/>
			<clipPath id="SVGID_2_">
				<use xlink:href="#SVGID_1_"  style="overflow:visible;"/>
			</clipPath>
			<path class="st0" d="M101.2,201.2c55.8,0,96.2-44.3,96.2-100.2c0-55.8-40.3-96.8-96.1-96.8C45.4,4.2,3,45.2,3,101
				C3,156.9,45.3,201.2,101.2,201.2"/>
		</g>
		<g>
			<defs>
				<path id="SVGID_3_" d="M101.2,201.2c55.8,0,96.2-44.3,96.2-100.2c0-55.8-40.3-96.8-96.1-96.8C45.4,4.2,3,45.2,3,101
					C3,156.9,45.3,201.2,101.2,201.2"/>
			</defs>
			<use xlink:href="#SVGID_3_"  style="overflow:visible;fill:#112F41;"/>
			<clipPath id="SVGID_4_">
				<use xlink:href="#SVGID_3_"  style="overflow:visible;"/>
			</clipPath>
			<g class="st1">
				<g>
					<defs>
						<path id="SVGID_5_" d="M101.2,201.2c55.8,0,96.2-44.3,96.2-100.2c0-55.8-40.3-96.8-96.1-96.8C45.4,4.2,3,45.2,3,101
							C3,156.9,45.3,201.2,101.2,201.2"/>
					</defs>
					<use xlink:href="#SVGID_5_"  style="overflow:visible;fill:#112F41;"/>
					<clipPath id="SVGID_6_">
						<use xlink:href="#SVGID_5_"  style="overflow:visible;"/>
					</clipPath>
					<g class="st2">
						<g>
							<g>
								<defs>
									<rect id="SVGID_7_" x="3.2" y="4.8" width="194.3" height="196.9"/>
								</defs>
								<use xlink:href="#SVGID_7_"  style="overflow:visible;fill:#112F41;"/>
								<clipPath id="SVGID_8_">
									<use xlink:href="#SVGID_7_"  style="overflow:visible;"/>
								</clipPath>
								<g class="st3">
									<g>
										<defs>
											<rect id="SVGID_9_" x="3.2" y="4.8" width="194.3" height="196.9"/>
										</defs>
										<use xlink:href="#SVGID_9_"  style="overflow:visible;fill:#112F41;"/>
										<clipPath id="SVGID_10_">
											<use xlink:href="#SVGID_9_"  style="overflow:visible;"/>
										</clipPath>
										<g class="st4">
											
												<image style="overflow:visible;enable-background:new    ;" width="817" height="825" xlink:href="CA270C5F.jpeg"  transform="matrix(0.2379 0 0 0.2379 3.2371 5.2114)">
											</image>
										</g>
									</g>
								</g>
							</g>
						</g>
					</g>
				</g>
			</g>
		</g>
	</g>
	<g>
		<g>
			<defs>
				<path id="SVGID_11_" d="M132.9,170c-9,7.9-20.3,13.6-33.8,16.3c0.6,2.4,1.2,4.7,2,6.8c21.2-3.2,39-13.7,52.2-28.6
					C146.4,166.9,139.6,168.9,132.9,170 M94.7,93.6c0,0.8,0,13.1,0,15.3c0,2.9-4,3.9-4,3.9l22.6,7.6c11.8,0,28.6-9.7,35.1-16.2
					c5.9-5.9,7.5-23.5,7.5-35.3s-5.5-26.7-11.4-32.6c-6.5-6.5-15.7-9.8-27.4-9.8H98.4h-7.5c0,0,3.8,1.4,3.8,3.8
					c0,10.2,0,44.8,0,59.3C94.7,89.6,94.7,93.6,94.7,93.6z M154.5,114.8c-8.4,5.9-18.8,9-31.4,9H93.4c0,0,0.4,18,2,37.7
					c10.1,2.1,20.5,3.4,31.7,2.7C142,151.5,151.2,133.3,154.5,114.8 M96.2,169.3c0.4,3.3,0.9,6.6,1.4,9.8c7.1-1.7,13.7-4.2,19.5-7.7
					C109.9,171.4,102.9,170.6,96.2,169.3 M44.9,139.9c7.3,5.1,15.8,9.6,24.8,13.5c0.4-8.6,0.8-17.9,0.8-29.1v-12.9
					c-8.9-4.4-17.1-9.6-24.1-15.3C42,110.2,41,125.5,44.9,139.9 M70.4,57.6c-9.9,9-18,21-22.8,34.4c6.8,5.4,14.5,10.2,22.8,14.2
					C70.4,86.6,70.4,69,70.4,57.6 M35.2,132.3c-2.4-14.4-0.5-28.9,4.6-41.8C35,86,31.1,81.4,27.8,77c-4.6,14-6.4,29.1-4.6,43.9
					C26.7,124.7,30.7,128.5,35.2,132.3 M37,140.6c-4.7-3.9-8.8-8.1-12.6-12.1c4.6,22.1,18,42.5,41.7,56.5c0.3-1.4,0.6-2.8,0.8-4.3
					C51.1,169.1,41.4,155.2,37,140.6 M67.7,175.3c0.6-4.5,1.1-9.4,1.5-15c-7.6-3.5-14.9-7.4-21.4-11.9
					C51.9,158.3,58.4,167.5,67.7,175.3 M202.5,101.2C202.5,45.3,157.2,0,101.2,0C45.3,0,0,45.3,0,101.2C0,143.8,26.3,180,63.4,195
					c0.4-1.1,0.8-1.9,1.2-3.1c-38.1-19.5-53-50.8-52.9-81.3C8.1,103.9,6,97.8,6.8,93.4c0.4,3.3,2.4,7.6,5.1,12.2
					c0.8-13.5,4.3-26.6,9.9-38.2c-2.2-4.4-3.7-8.5-3.6-11.6c0.6,2.5,2.3,5.8,4.6,9.4c9.8-18.9,25.1-33.6,42.5-38.7
					C48.8,36.6,36.1,53.8,28.9,73.6c3.5,4.3,7.5,8.7,12.4,13.2c6.6-14.6,17-26.6,29.1-33.7c0-5.4,0-8.8,0-8.8s7-28.9-9.1-28.9
					c-3,0,61.8,0,61.8,0c15.7,0,26.8,4.6,35.9,13.7c9.8,9.8,14.7,20.8,14.7,38.5c0,17.6-3.6,32.7-13.4,42.5c-0.3,0.3-0.7,0.5-1,0.8
					c-0.3,18-6.7,37-19.4,51.8c5.9-1,11.9-2.5,18-4.4c20.4-26.8,28-63.2,17.6-91.2c15.3,21.5,14.8,56.1-0.1,84.7
					c4-1.8,8-3.9,12.1-6.2c-4.7,3.6-9.4,6.7-14,9.5c-13.4,23.5-36.8,42.2-69.4,44.8c0.4,0.8,0.9,1.4,1.3,2.1
					C159.3,199.9,202.5,155.8,202.5,101.2"/>
			</defs>
			<clipPath id="SVGID_12_">
				<use xlink:href="#SVGID_11_"  style="overflow:visible;"/>
			</clipPath>
			<radialGradient id="SVGID_13_" cx="101.25" cy="101" r="101.1251" fx="132.7389" fy="7.5207" gradientUnits="userSpaceOnUse">
				<stop  offset="0.1914" style="stop-color:#EC893E"/>
				<stop  offset="0.4341" style="stop-color:#EC8C40"/>
				<stop  offset="0.6067" style="stop-color:#EE9545"/>
				<stop  offset="0.7577" style="stop-color:#F0A54D"/>
				<stop  offset="0.8953" style="stop-color:#F3BB59"/>
				<stop  offset="1" style="stop-color:#F6D165"/>
			</radialGradient>
			<path class="st5" d="M132.9,170c-9,7.9-20.3,13.6-33.8,16.3c0.6,2.4,1.2,4.7,2,6.8c21.2-3.2,39-13.7,52.2-28.6
				C146.4,166.9,139.6,168.9,132.9,170 M94.7,93.6c0,0.8,0,13.1,0,15.3c0,2.9-4,3.9-4,3.9l22.6,7.6c11.8,0,28.6-9.7,35.1-16.2
				c5.9-5.9,7.5-23.5,7.5-35.3s-5.5-26.7-11.4-32.6c-6.5-6.5-15.7-9.8-27.4-9.8H98.4h-7.5c0,0,3.8,1.4,3.8,3.8c0,10.2,0,44.8,0,59.3
				C94.7,89.6,94.7,93.6,94.7,93.6z M154.5,114.8c-8.4,5.9-18.8,9-31.4,9H93.4c0,0,0.4,18,2,37.7c10.1,2.1,20.5,3.4,31.7,2.7
				C142,151.5,151.2,133.3,154.5,114.8 M96.2,169.3c0.4,3.3,0.9,6.6,1.4,9.8c7.1-1.7,13.7-4.2,19.5-7.7
				C109.9,171.4,102.9,170.6,96.2,169.3 M44.9,139.9c7.3,5.1,15.8,9.6,24.8,13.5c0.4-8.6,0.8-17.9,0.8-29.1v-12.9
				c-8.9-4.4-17.1-9.6-24.1-15.3C42,110.2,41,125.5,44.9,139.9 M70.4,57.6c-9.9,9-18,21-22.8,34.4c6.8,5.4,14.5,10.2,22.8,14.2
				C70.4,86.6,70.4,69,70.4,57.6 M35.2,132.3c-2.4-14.4-0.5-28.9,4.6-41.8C35,86,31.1,81.4,27.8,77c-4.6,14-6.4,29.1-4.6,43.9
				C26.7,124.7,30.7,128.5,35.2,132.3 M37,140.6c-4.7-3.9-8.8-8.1-12.6-12.1c4.6,22.1,18,42.5,41.7,56.5c0.3-1.4,0.6-2.8,0.8-4.3
				C51.1,169.1,41.4,155.2,37,140.6 M67.7,175.3c0.6-4.5,1.1-9.4,1.5-15c-7.6-3.5-14.9-7.4-21.4-11.9
				C51.9,158.3,58.4,167.5,67.7,175.3 M202.5,101.2C202.5,45.3,157.2,0,101.2,0C45.3,0,0,45.3,0,101.2C0,143.8,26.3,180,63.4,195
				c0.4-1.1,0.8-1.9,1.2-3.1c-38.1-19.5-53-50.8-52.9-81.3C8.1,103.9,6,97.8,6.8,93.4c0.4,3.3,2.4,7.6,5.1,12.2
				c0.8-13.5,4.3-26.6,9.9-38.2c-2.2-4.4-3.7-8.5-3.6-11.6c0.6,2.5,2.3,5.8,4.6,9.4c9.8-18.9,25.1-33.6,42.5-38.7
				C48.8,36.6,36.1,53.8,28.9,73.6c3.5,4.3,7.5,8.7,12.4,13.2c6.6-14.6,17-26.6,29.1-33.7c0-5.4,0-8.8,0-8.8s7-28.9-9.1-28.9
				c-3,0,61.8,0,61.8,0c15.7,0,26.8,4.6,35.9,13.7c9.8,9.8,14.7,20.8,14.7,38.5c0,17.6-3.6,32.7-13.4,42.5c-0.3,0.3-0.7,0.5-1,0.8
				c-0.3,18-6.7,37-19.4,51.8c5.9-1,11.9-2.5,18-4.4c20.4-26.8,28-63.2,17.6-91.2c15.3,21.5,14.8,56.1-0.1,84.7
				c4-1.8,8-3.9,12.1-6.2c-4.7,3.6-9.4,6.7-14,9.5c-13.4,23.5-36.8,42.2-69.4,44.8c0.4,0.8,0.9,1.4,1.3,2.1
				C159.3,199.9,202.5,155.8,202.5,101.2"/>
		</g>
		<g>
			<defs>
				<path id="SVGID_14_" d="M132.9,170c-9,7.9-20.3,13.6-33.8,16.3c0.6,2.4,1.2,4.7,2,6.8c21.2-3.2,39-13.7,52.2-28.6
					C146.4,166.9,139.6,168.9,132.9,170 M94.7,93.6c0,0.8,0,13.1,0,15.3c0,2.9-4,3.9-4,3.9l22.6,7.6c11.8,0,28.6-9.7,35.1-16.2
					c5.9-5.9,7.5-23.5,7.5-35.3s-5.5-26.7-11.4-32.6c-6.5-6.5-15.7-9.8-27.4-9.8H98.4h-7.5c0,0,3.8,1.4,3.8,3.8
					c0,10.2,0,44.8,0,59.3C94.7,89.6,94.7,93.6,94.7,93.6z M154.5,114.8c-8.4,5.9-18.8,9-31.4,9H93.4c0,0,0.4,18,2,37.7
					c10.1,2.1,20.5,3.4,31.7,2.7C142,151.5,151.2,133.3,154.5,114.8 M96.2,169.3c0.4,3.3,0.9,6.6,1.4,9.8c7.1-1.7,13.7-4.2,19.5-7.7
					C109.9,171.4,102.9,170.6,96.2,169.3 M44.9,139.9c7.3,5.1,15.8,9.6,24.8,13.5c0.4-8.6,0.8-17.9,0.8-29.1v-12.9
					c-8.9-4.4-17.1-9.6-24.1-15.3C42,110.2,41,125.5,44.9,139.9 M70.4,57.6c-9.9,9-18,21-22.8,34.4c6.8,5.4,14.5,10.2,22.8,14.2
					C70.4,86.6,70.4,69,70.4,57.6 M35.2,132.3c-2.4-14.4-0.5-28.9,4.6-41.8C35,86,31.1,81.4,27.8,77c-4.6,14-6.4,29.1-4.6,43.9
					C26.7,124.7,30.7,128.5,35.2,132.3 M37,140.6c-4.7-3.9-8.8-8.1-12.6-12.1c4.6,22.1,18,42.5,41.7,56.5c0.3-1.4,0.6-2.8,0.8-4.3
					C51.1,169.1,41.4,155.2,37,140.6 M67.7,175.3c0.6-4.5,1.1-9.4,1.5-15c-7.6-3.5-14.9-7.4-21.4-11.9
					C51.9,158.3,58.4,167.5,67.7,175.3 M202.5,101.2C202.5,45.3,157.2,0,101.2,0C45.3,0,0,45.3,0,101.2C0,143.8,26.3,180,63.4,195
					c0.4-1.1,0.8-1.9,1.2-3.1c-38.1-19.5-53-50.8-52.9-81.3C8.1,103.9,6,97.8,6.8,93.4c0.4,3.3,2.4,7.6,5.1,12.2
					c0.8-13.5,4.3-26.6,9.9-38.2c-2.2-4.4-3.7-8.5-3.6-11.6c0.6,2.5,2.3,5.8,4.6,9.4c9.8-18.9,25.1-33.6,42.5-38.7
					C48.8,36.6,36.1,53.8,28.9,73.6c3.5,4.3,7.5,8.7,12.4,13.2c6.6-14.6,17-26.6,29.1-33.7c0-5.4,0-8.8,0-8.8s7-28.9-9.1-28.9
					c-3,0,61.8,0,61.8,0c15.7,0,26.8,4.6,35.9,13.7c9.8,9.8,14.7,20.8,14.7,38.5c0,17.6-3.6,32.7-13.4,42.5c-0.3,0.3-0.7,0.5-1,0.8
					c-0.3,18-6.7,37-19.4,51.8c5.9-1,11.9-2.5,18-4.4c20.4-26.8,28-63.2,17.6-91.2c15.3,21.5,14.8,56.1-0.1,84.7
					c4-1.8,8-3.9,12.1-6.2c-4.7,3.6-9.4,6.7-14,9.5c-13.4,23.5-36.8,42.2-69.4,44.8c0.4,0.8,0.9,1.4,1.3,2.1
					C159.3,199.9,202.5,155.8,202.5,101.2"/>
			</defs>
			<clipPath id="SVGID_15_">
				<use xlink:href="#SVGID_14_"  style="overflow:visible;"/>
			</clipPath>
			<g class="st6">
				<g>
					<defs>
						<path id="SVGID_16_" d="M132.9,170c-9,7.9-20.3,13.6-33.8,16.3c0.6,2.4,1.2,4.7,2,6.8c21.2-3.2,39-13.7,52.2-28.6
							C146.4,166.9,139.6,168.9,132.9,170 M94.7,93.6c0,0.8,0,13.1,0,15.3c0,2.9-4,3.9-4,3.9l22.6,7.6c11.8,0,28.6-9.7,35.1-16.2
							c5.9-5.9,7.5-23.5,7.5-35.3s-5.5-26.7-11.4-32.6c-6.5-6.5-15.7-9.8-27.4-9.8H98.4h-7.5c0,0,3.8,1.4,3.8,3.8
							c0,10.2,0,44.8,0,59.3C94.7,89.6,94.7,93.6,94.7,93.6z M154.5,114.8c-8.4,5.9-18.8,9-31.4,9H93.4c0,0,0.4,18,2,37.7
							c10.1,2.1,20.5,3.4,31.7,2.7C142,151.5,151.2,133.3,154.5,114.8 M96.2,169.3c0.4,3.3,0.9,6.6,1.4,9.8
							c7.1-1.7,13.7-4.2,19.5-7.7C109.9,171.4,102.9,170.6,96.2,169.3 M44.9,139.9c7.3,5.1,15.8,9.6,24.8,13.5
							c0.4-8.6,0.8-17.9,0.8-29.1v-12.9c-8.9-4.4-17.1-9.6-24.1-15.3C42,110.2,41,125.5,44.9,139.9 M70.4,57.6
							c-9.9,9-18,21-22.8,34.4c6.8,5.4,14.5,10.2,22.8,14.2C70.4,86.6,70.4,69,70.4,57.6 M35.2,132.3c-2.4-14.4-0.5-28.9,4.6-41.8
							C35,86,31.1,81.4,27.8,77c-4.6,14-6.4,29.1-4.6,43.9C26.7,124.7,30.7,128.5,35.2,132.3 M37,140.6c-4.7-3.9-8.8-8.1-12.6-12.1
							c4.6,22.1,18,42.5,41.7,56.5c0.3-1.4,0.6-2.8,0.8-4.3C51.1,169.1,41.4,155.2,37,140.6 M67.7,175.3c0.6-4.5,1.1-9.4,1.5-15
							c-7.6-3.5-14.9-7.4-21.4-11.9C51.9,158.3,58.4,167.5,67.7,175.3 M202.5,101.2C202.5,45.3,157.2,0,101.2,0
							C45.3,0,0,45.3,0,101.2C0,143.8,26.3,180,63.4,195c0.4-1.1,0.8-1.9,1.2-3.1c-38.1-19.5-53-50.8-52.9-81.3
							C8.1,103.9,6,97.8,6.8,93.4c0.4,3.3,2.4,7.6,5.1,12.2c0.8-13.5,4.3-26.6,9.9-38.2c-2.2-4.4-3.7-8.5-3.6-11.6
							c0.6,2.5,2.3,5.8,4.6,9.4c9.8-18.9,25.1-33.6,42.5-38.7C48.8,36.6,36.1,53.8,28.9,73.6c3.5,4.3,7.5,8.7,12.4,13.2
							c6.6-14.6,17-26.6,29.1-33.7c0-5.4,0-8.8,0-8.8s7-28.9-9.1-28.9c-3,0,61.8,0,61.8,0c15.7,0,26.8,4.6,35.9,13.7
							c9.8,9.8,14.7,20.8,14.7,38.5c0,17.6-3.6,32.7-13.4,42.5c-0.3,0.3-0.7,0.5-1,0.8c-0.3,18-6.7,37-19.4,51.8
							c5.9-1,11.9-2.5,18-4.4c20.4-26.8,28-63.2,17.6-91.2c15.3,21.5,14.8,56.1-0.1,84.7c4-1.8,8-3.9,12.1-6.2
							c-4.7,3.6-9.4,6.7-14,9.5c-13.4,23.5-36.8,42.2-69.4,44.8c0.4,0.8,0.9,1.4,1.3,2.1C159.3,199.9,202.5,155.8,202.5,101.2"/>
					</defs>
					<clipPath id="SVGID_17_">
						<use xlink:href="#SVGID_16_"  style="overflow:visible;"/>
					</clipPath>
				</g>
				<g>
					<defs>
						<path id="SVGID_18_" d="M132.9,170c-9,7.9-20.3,13.6-33.8,16.3c0.6,2.4,1.2,4.7,2,6.8c21.2-3.2,39-13.7,52.2-28.6
							C146.4,166.9,139.6,168.9,132.9,170 M94.7,93.6c0,0.8,0,13.1,0,15.3c0,2.9-4,3.9-4,3.9l22.6,7.6c11.8,0,28.6-9.7,35.1-16.2
							c5.9-5.9,7.5-23.5,7.5-35.3s-5.5-26.7-11.4-32.6c-6.5-6.5-15.7-9.8-27.4-9.8H98.4h-7.5c0,0,3.8,1.4,3.8,3.8
							c0,10.2,0,44.8,0,59.3C94.7,89.6,94.7,93.6,94.7,93.6z M154.5,114.8c-8.4,5.9-18.8,9-31.4,9H93.4c0,0,0.4,18,2,37.7
							c10.1,2.1,20.5,3.4,31.7,2.7C142,151.5,151.2,133.3,154.5,114.8 M96.2,169.3c0.4,3.3,0.9,6.6,1.4,9.8
							c7.1-1.7,13.7-4.2,19.5-7.7C109.9,171.4,102.9,170.6,96.2,169.3 M44.9,139.9c7.3,5.1,15.8,9.6,24.8,13.5
							c0.4-8.6,0.8-17.9,0.8-29.1v-12.9c-8.9-4.4-17.1-9.6-24.1-15.3C42,110.2,41,125.5,44.9,139.9 M70.4,57.6
							c-9.9,9-18,21-22.8,34.4c6.8,5.4,14.5,10.2,22.8,14.2C70.4,86.6,70.4,69,70.4,57.6 M35.2,132.3c-2.4-14.4-0.5-28.9,4.6-41.8
							C35,86,31.1,81.4,27.8,77c-4.6,14-6.4,29.1-4.6,43.9C26.7,124.7,30.7,128.5,35.2,132.3 M37,140.6c-4.7-3.9-8.8-8.1-12.6-12.1
							c4.6,22.1,18,42.5,41.7,56.5c0.3-1.4,0.6-2.8,0.8-4.3C51.1,169.1,41.4,155.2,37,140.6 M67.7,175.3c0.6-4.5,1.1-9.4,1.5-15
							c-7.6-3.5-14.9-7.4-21.4-11.9C51.9,158.3,58.4,167.5,67.7,175.3 M202.5,101.2C202.5,45.3,157.2,0,101.2,0
							C45.3,0,0,45.3,0,101.2C0,143.8,26.3,180,63.4,195c0.4-1.1,0.8-1.9,1.2-3.1c-38.1-19.5-53-50.8-52.9-81.3
							C8.1,103.9,6,97.8,6.8,93.4c0.4,3.3,2.4,7.6,5.1,12.2c0.8-13.5,4.3-26.6,9.9-38.2c-2.2-4.4-3.7-8.5-3.6-11.6
							c0.6,2.5,2.3,5.8,4.6,9.4c9.8-18.9,25.1-33.6,42.5-38.7C48.8,36.6,36.1,53.8,28.9,73.6c3.5,4.3,7.5,8.7,12.4,13.2
							c6.6-14.6,17-26.6,29.1-33.7c0-5.4,0-8.8,0-8.8s7-28.9-9.1-28.9c-3,0,61.8,0,61.8,0c15.7,0,26.8,4.6,35.9,13.7
							c9.8,9.8,14.7,20.8,14.7,38.5c0,17.6-3.6,32.7-13.4,42.5c-0.3,0.3-0.7,0.5-1,0.8c-0.3,18-6.7,37-19.4,51.8
							c5.9-1,11.9-2.5,18-4.4c20.4-26.8,28-63.2,17.6-91.2c15.3,21.5,14.8,56.1-0.1,84.7c4-1.8,8-3.9,12.1-6.2
							c-4.7,3.6-9.4,6.7-14,9.5c-13.4,23.5-36.8,42.2-69.4,44.8c0.4,0.8,0.9,1.4,1.3,2.1C159.3,199.9,202.5,155.8,202.5,101.2"/>
					</defs>
					<clipPath id="SVGID_19_">
						<use xlink:href="#SVGID_18_"  style="overflow:visible;"/>
					</clipPath>
					<circle class="st7" cx="101.2" cy="100.8" r="101.2"/>
				</g>
			</g>
		</g>
	</g>
	<path class="st8" d="M123.2,14.5c0,0-70,0-67,0c16.1,0,14.3,30.2,14.3,30.2v80.2c0,35.5-2.8,57.3-6.9,70.2
		c11.9,5.2,30.3,7.1,41.5,7c-12.6-22.8-10.3-77.7-10.3-77.7h28.5c15.7,0,28.1-4.6,37.3-13.7c9.8-9.8,14.7-24.9,14.7-42.6
		s-4.9-30-14.7-39.8C151.3,19.1,138.9,14.5,123.2,14.5L123.2,14.5z M117.3,27c11.8,0,20.9,3.3,27.5,9.8c5.9,5.9,8.8,20.9,8.8,32.7
		s-2.9,28.2-8.8,34c-6.5,6.5-15.7,9.8-27.5,9.8l-26.5,0.1c0,0,4-0.9,4-3.9c0-2.3,0-14.5,0-15.4v-4V30.7c0-2.4-3.8-3.8-3.8-3.8h7.5
		L117.3,27L117.3,27z"/>
</g>
</svg>
